<?xml version="1.0" encoding="UTF-8" standalone="no"?>
<!-- Created with Inkscape (http://www.inkscape.org/) -->

<svg
   width="178.68216mm"
   height="49.338062mm"
   viewBox="0 0 178.68216 49.338062"
   version="1.1"
   id="svg1"
   xml:space="preserve"
   sodipodi:docname="miralis_logo_1_github_dark.svg"
   inkscape:version="1.4-beta2 (9aaf4f34, 2024-07-30)"
   xmlns:inkscape="http://www.inkscape.org/namespaces/inkscape"
   xmlns:sodipodi="http://sodipodi.sourceforge.net/DTD/sodipodi-0.dtd"
   xmlns:xlink="http://www.w3.org/1999/xlink"
   xmlns="http://www.w3.org/2000/svg"
   xmlns:svg="http://www.w3.org/2000/svg"><sodipodi:namedview
     id="namedview1"
     pagecolor="#ffffff"
     bordercolor="#000000"
     borderopacity="0.25"
     inkscape:showpageshadow="2"
     inkscape:pageopacity="0.0"
     inkscape:pagecheckerboard="0"
     inkscape:deskcolor="#d1d1d1"
     inkscape:document-units="mm"
     inkscape:zoom="0.70997263"
     inkscape:cx="233.10758"
     inkscape:cy="0"
     inkscape:window-width="1728"
     inkscape:window-height="1051"
     inkscape:window-x="0"
     inkscape:window-y="38"
     inkscape:window-maximized="1"
     inkscape:current-layer="svg1" /><defs
     id="defs1"><linearGradient
       id="linearGradient34"><stop
         style="stop-color:#0094bc;stop-opacity:1;"
         offset="0"
         id="stop34" /><stop
         style="stop-color:#240073;stop-opacity:1;"
         offset="1"
         id="stop35" /></linearGradient><linearGradient
       id="linearGradient31"><stop
         style="stop-color:#77b8ce;stop-opacity:1;"
         offset="0"
         id="stop31" /><stop
         style="stop-color:#0060d6;stop-opacity:1;"
         offset="1"
         id="stop32" /></linearGradient><linearGradient
       xlink:href="#linearGradient31"
       id="linearGradient47"
       gradientUnits="userSpaceOnUse"
       x1="-494.43533"
       y1="-831.95593"
       x2="-561.64624"
       y2="-764.74506" /><linearGradient
       xlink:href="#linearGradient34"
       id="linearGradient50"
       gradientUnits="userSpaceOnUse"
       x1="-610.3869"
       y1="-823.77002"
       x2="-580.79376"
       y2="-791.62244" /></defs><g
     id="layer1"
     transform="translate(-15.658917,-27.431301)"><g
       id="g53"
       transform="translate(-568.737,-368.44345)"><g
         id="g14"
         transform="translate(8.3333325e-6,263.31402)" /><path
         id="path13"
         style="fill:url(#linearGradient47);fill-opacity:1;stroke-width:2;stroke-opacity:0.54902"
         d="m -555.8899,-886.45384 c -4.3025,4e-5 -8.60474,1.64865 -11.90156,4.94547 l -17.20479,17.20479 a 8.6905006,8.6905006 89.999581 0 0 9e-5,12.29031 l 22.96147,22.9608 a 8.6908236,8.6908236 179.99981 0 0 12.29054,-4e-5 l 22.96111,-22.96075 a 8.6905586,8.6905586 90.000228 0 0 5e-5,-12.29035 l -17.20481,-17.20481 c -3.29681,-3.29681 -7.59954,-4.94538 -11.9021,-4.94542 z m -52.85187,45.89578 -17.20428,17.20428 c -6.59365,6.59365 -6.59368,17.21004 -5e-5,23.80367 l 58.15458,58.15458 c 6.5937,6.59369 17.2101,6.59367 23.80374,2e-5 l 58.15459,-58.15459 c 6.59365,-6.59364 6.59367,-17.21004 -2e-5,-23.80373 l -17.20425,-17.20425 a 8.690687,8.690687 1.9574615e-4 0 0 -12.29044,-4e-5 l -34.83367,34.83319 c -0.69734,0.67382 -1.51001,1.21695 -2.39932,1.60354 -0.27839,0.10778 -0.56252,0.20008 -0.85109,0.27649 -0.63964,0.21259 -1.30331,0.34452 -1.97563,0.39271 -0.33401,0.0207 -0.66899,0.0208 -1.003,4e-5 -0.67179,-0.0483 -1.33493,-0.18028 -1.97406,-0.39277 -0.28931,-0.0765 -0.57415,-0.16899 -0.85322,-0.27702 -0.88909,-0.38647 -1.70158,-0.92941 -2.39881,-1.60299 l -34.83455,-34.83324 a 8.6907909,8.6907909 179.99946 0 0 -12.29052,1.1e-4 z"
         transform="matrix(0.32891259,0,0,0.32891259,791.90401,687.44058)" /><path
         style="fill:url(#linearGradient50);fill-opacity:1;stroke-width:2;stroke-opacity:0.54902"
         transform="matrix(0.32891259,0,0,0.32891259,791.90401,687.44058)"
         d="m -602.59659,-843.10357 c -2.30497,2e-5 -4.51553,0.91569 -6.14536,2.54558 l -17.20412,17.20412 c -6.59364,6.59364 -6.59362,17.21009 0,23.80371 l 26.68412,26.68412 a 11.484742,11.484742 179.99982 0 0 16.24193,-5e-5 l 32.85847,-32.85888 c -0.69734,0.67382 -1.51003,1.21693 -2.39934,1.60352 -0.27838,0.10777 -0.56253,0.20005 -0.85111,0.27646 -0.63963,0.2126 -1.30327,0.34455 -1.97559,0.39275 -0.33401,0.0207 -0.66902,0.0207 -1.00304,0 -0.67179,-0.0484 -1.33491,-0.18026 -1.97404,-0.39275 -0.2893,-0.0765 -0.5741,-0.16895 -0.85317,-0.27698 -0.88909,-0.38647 -1.70159,-0.92943 -2.39882,-1.603 l -34.83457,-34.83302 c -1.62983,-1.62989 -3.84039,-2.54556 -6.14536,-2.54558 z"
         id="path14" /></g><path
       d="m 88.232579,64.158978 0.9906,-2.1336 8.6106,-17.983199 v 22.440899 h 5.334001 V 39.127279 h -5.334001 l -9.4869,19.430999 -9.372599,-19.430999 h -5.2959 v 27.355799 h 2.3622 V 44.651779 l 10.8204,22.288499 z M 111.01636,42.251479 c 0,0.4953 2.8194,3.2766 3.2385,3.2766 0.4953,0 3.2766,-2.667 3.2766,-3.2766 0,-0.4953 -2.7051,-3.2766 -3.2766,-3.2766 -0.5334,0 -3.2385,2.8575 -3.2385,3.2766 z m 0.9144,24.231599 h 4.572 V 47.090179 l -4.572,2.7813 z m 18.28801,-15.278099 c 0.9906,-0.0762 1.2954,1.3335 1.4478,2.3622 l 4.0767,-2.4384 v -0.3048 c 0,-2.0193 -1.5621,-2.9718 -2.8575,-2.9718 -2.2098,0 -4.0005,1.8669 -4.8768,4.3815 l -1.0287,-4.8387 -3.429,2.286 v 16.802099 h 4.572 v -9.8298 c 0.1524,-2.3241 0.6858,-4.000499 2.0955,-5.448299 z m 19.16431,15.887699 3.3909,-1.0287 v -11.7729 c 0,-5.105399 -3.0861,-6.629399 -6.4008,-6.629399 h -0.6096 c -3.9243,0 -7.1247,2.5146 -7.5438,5.5245 l 3.9624,-0.9144 c 0.3048,-1.5621 1.2573,-2.7813 2.9337,-2.7813 1.9812,0 3.2766,1.4859 3.3147,4.2672 l -0.0381,2.247899 c -1.8288,0.1524 -3.6576,0.0762 -6.1722,0.8382 -2.3622,0.7239 -4.7625,2.7813 -4.7625,5.8293 0,1.7145 1.1049,4.3434 4.6482,4.3434 2.5146,0 5.1054,-1.4097 6.3246,-3.429 z m -5.4483,-2.9337 c -0.9906,0 -1.9431,-0.6858 -1.9431,-1.8288 0,-1.4478 0.5334,-2.8575 2.5908,-3.7719 1.7145,-0.6477 2.7432,-1.0287 3.7719,-1.2573 l -0.0381,4.0005 c -0.8382,1.9812 -3.0099,2.8575 -4.3815,2.8575 z m 14.47797,2.3241 h 4.5339 l 0.0381,-29.375099 -4.572,3.048 z m 10.93471,-24.231599 c 0,0.4953 2.8194,3.2766 3.2385,3.2766 0.4953,0 3.2766,-2.667 3.2766,-3.2766 0,-0.4953 -2.7051,-3.2766 -3.2766,-3.2766 -0.5334,0 -3.2385,2.8575 -3.2385,3.2766 z m 0.9144,24.231599 h 4.572 V 47.090179 l -4.572,2.7813 z m 16.26872,-18.821399 c -3.3147,0 -6.2484,2.0193 -6.2484,5.7531 0,2.971799 2.2098,5.257799 5.7912,6.019799 l 2.8194,0.7239 c 1.524,0.3429 2.0955,1.3335 2.0955,2.2479 0,1.5621 -1.7526,2.0574 -3.3909,2.0574 -1.3335,0 -3.1623,-1.1811 -3.6195,-2.7432 l -4.1148,1.0287 c 0.8763,2.7813 3.7338,3.9624 7.6962,3.9624 4.3434,0 6.7818,-2.7813 6.7818,-5.715 0,-2.7051 -2.0574,-4.572 -4.5339,-5.1816 l -2.4003,-0.5715 c -2.286,-0.5715 -3.7719,-1.676399 -3.7719,-3.238499 0,-1.4859 1.3335,-2.286 3.1623,-2.286 1.1049,0 2.667,0.8001 3.0099,2.667 l 4.0386,-0.5715 c -0.9525,-3.3147 -3.429,-4.1529 -7.3152,-4.1529 z"
       id="text2"
       style="font-size:38.1px;font-family:'Bagnard Sans';-inkscape-font-specification:'Bagnard Sans, Normal';fill:#ffffff;stroke-width:0.264583"
       aria-label="Miralis" /></g></svg>
